<svg width="34" height="28" viewBox="0 0 34 28" fill="none" xmlns="http://www.w3.org/2000/svg">
<g clip-path="url(#clip0_3961_113)">
<path d="M24.4966 0.776362H29.2645L25.5317 13.8432C25.2827 14.6666 24.8906 15.9585 24.3535 17.721C25.0808 20.6697 25.6258 22.4302 25.9905 23.0046C26.6806 24.0574 27.551 24.5848 28.6038 24.5848C29.3684 24.5848 30.0781 24.2691 30.729 23.6379C31.3799 23.0066 31.8112 22.0204 32.021 20.6795H33.1699C32.9013 23.4359 32.3229 25.3415 31.4329 26.3943C30.5428 27.4471 29.5135 27.9745 28.345 27.9745C27.253 27.9745 26.263 27.5158 25.3729 26.5963C24.4828 25.6768 23.683 23.7065 22.9752 20.6795C22.1322 22.3459 21.3088 23.6085 20.505 24.4711C19.3757 25.6591 18.1504 26.5433 16.829 27.1276C15.5076 27.7118 14.0039 28.0039 12.3198 28.0039C8.08906 28.0039 4.97773 26.5963 2.98586 23.7829C0.995939 20.9637 0 17.7583 0 14.1588C0 9.94567 1.16846 6.53438 3.50343 3.92102C5.8384 1.30766 8.57723 0 11.718 0C13.9 0 15.8252 0.664613 17.4897 1.9958C19.1561 3.32698 20.6677 5.80115 22.0263 9.42025L24.4966 0.776362ZM21.0225 12.6374C19.9894 8.6929 18.6582 5.9423 17.0309 4.38174C15.4037 2.82117 13.7471 2.04089 12.063 2.04089C10.1868 2.04089 8.62624 3.07016 7.38132 5.12869C6.1364 7.18723 5.51491 10.4652 5.51491 14.9646C5.51491 17.6269 5.7835 19.7168 6.31872 21.2402C6.85394 22.7615 7.66363 23.9398 8.74583 24.773C9.82804 25.6062 10.971 26.0218 12.1767 26.0218C13.651 26.0218 14.9999 25.3415 16.2252 23.9829C17.8916 22.144 19.4894 18.3641 21.0206 12.6394L21.0225 12.6374Z" fill="#EF8E2E"/>
</g>
<defs>
<clipPath id="clip0_3961_113">
<rect width="33.1699" height="28" fill="white"/>
</clipPath>
</defs>
</svg>
