<svg width="17" height="34" viewBox="0 0 17 34" fill="none" xmlns="http://www.w3.org/2000/svg">
<g id="Layer_1" clip-path="url(#clip0_3961_124)">
<path id="Vector" d="M3.81278 24.5154V27.5985C3.81278 29.5684 3.56872 31.7026 3.0831 34.0012H0C0.328731 32.4933 0.522981 31.466 0.583996 30.9181C0.742135 29.216 0.820582 27.9695 0.820582 27.1788V8.5358C0.820582 6.3592 1.036 4.74543 1.46808 3.69324C1.89892 2.64105 2.67841 1.76319 3.80282 1.05717C4.92723 0.35239 6.27453 0 7.84347 0C10.0201 0 11.7584 0.583996 13.0596 1.75074C14.3608 2.91873 15.0108 4.30463 15.0108 5.90969C15.0108 6.9432 14.7468 7.92566 14.2176 8.85581C13.6884 9.78597 12.8703 10.5916 11.7646 11.2727C15.0233 12.8292 16.6532 15.2486 16.6532 18.5322C16.6532 19.9916 16.312 21.3538 15.6322 22.6177C14.951 23.8828 14.0147 24.8466 12.823 25.509C11.6314 26.1715 10.4036 26.5027 9.13847 26.5027C8.32412 26.5027 7.51848 26.3632 6.72155 26.0831C5.92463 25.8029 4.95462 25.2799 3.81278 24.5141V24.5154ZM3.81278 23.0747C4.99198 23.9015 6.01926 24.4979 6.89588 24.8628C7.5521 25.1305 8.20956 25.2637 8.86578 25.2637C10.0935 25.2637 11.1246 24.7557 11.9576 23.7409C12.7906 22.726 13.2065 21.1172 13.2065 18.9157C13.2065 17.5298 13.0085 16.317 12.6138 15.2773C12.2191 14.2375 11.5218 13.0982 10.5256 11.8567C9.68636 12.1369 8.9629 12.2764 8.35525 12.2764C7.62556 12.2764 7.1113 12.1668 6.8137 11.9476C6.5161 11.7285 6.36667 11.4919 6.36667 11.2366C6.36667 11.0063 6.48248 10.7983 6.71284 10.6165C6.9432 10.4347 7.31426 10.3426 7.82604 10.3426C8.42124 10.3426 9.32152 10.5007 10.5256 10.817C11.3761 9.12727 11.8019 7.52719 11.8019 6.01926C11.8019 4.51134 11.4246 3.30101 10.6713 2.46299C9.91672 1.62373 8.98033 1.2041 7.86215 1.2041C6.45135 1.2041 5.35682 1.80055 4.57858 2.9922C4.06805 3.7829 3.81278 5.05299 3.81278 6.80498V23.0734V23.0747Z" fill="#EF8E2E"/>
</g>
<defs>
<clipPath id="clip0_3961_124">
<rect width="16.6532" height="34" fill="white"/>
</clipPath>
</defs>
</svg>
