<svg width="33" height="32" viewBox="0 0 33 32" fill="none" xmlns="http://www.w3.org/2000/svg">
<g id="Layer_1" clip-path="url(#clip0_3961_130)">
<path id="Vector" d="M23.7774 21.1337L27.5698 17.3444L10.1758 10.1631L17.3571 27.5541L21.1495 23.7647L29.3844 31.9996L32.0154 29.3717L23.7774 21.1337Z" fill="#EF8E2E"/>
<path id="Vector_2" d="M10.4453 6.59549C12.3 6.59549 13.8527 7.91407 14.2131 9.66395L15.7196 10.2863C15.6364 7.44271 13.3074 5.16602 10.4453 5.16602C7.5833 5.16602 5.16797 7.52897 5.16797 10.4434C5.16797 13.3578 7.45698 15.6437 10.3067 15.7177L9.68746 14.2142C7.92834 13.86 6.59745 12.3042 6.59745 10.4434C6.59745 8.32073 8.32268 6.59549 10.4453 6.59549Z" fill="#EF8E2E"/>
<path id="Vector_3" d="M10.4438 19.4551C5.47454 19.4551 1.43256 15.4131 1.43256 10.4438C1.43256 5.47454 5.47454 1.42948 10.4438 1.42948C15.4131 1.42948 19.4551 5.47145 19.4551 10.4407C19.4551 10.8967 19.4212 11.3465 19.3534 11.784L20.709 12.3447C20.823 11.7285 20.8846 11.0908 20.8846 10.4407C20.8846 4.67661 16.211 0 10.4438 0C4.67662 0 0 4.67662 0 10.4438C0 16.211 4.67662 20.8876 10.4438 20.8876C11.1 20.8876 11.7408 20.823 12.3631 20.709L11.8055 19.3534C11.3619 19.4212 10.9059 19.4551 10.4438 19.4551Z" fill="#EF8E2E"/>
</g>
<defs>
<clipPath id="clip0_3961_130">
<rect width="32.0154" height="32" fill="white"/>
</clipPath>
</defs>
</svg>
