<svg width="33" height="32" viewBox="0 0 33 32" fill="none" xmlns="http://www.w3.org/2000/svg">
<g clip-path="url(#clip0_3969_150)">
<path d="M27.0456 0H5.40887C2.42585 0 0 2.42585 0 5.40887V21.6361C0 24.6191 2.42585 27.045 5.40887 27.045H9.36173L14.4315 31.3129C14.9481 31.7724 15.5959 32.0013 16.2393 32C16.8719 32 17.4982 31.7807 17.9863 31.3452L23.1885 27.045H27.0463C30.0293 27.045 32.4551 24.6191 32.4551 21.6361V5.40887C32.4551 2.42585 30.0293 0 27.0463 0H27.045H27.0456ZM29.7504 21.6361C29.7504 23.1276 28.5371 24.3409 27.0456 24.3409H22.7023C22.3885 24.3409 22.083 24.4505 21.8409 24.6508L16.2006 29.2686L10.7265 24.6584C10.4818 24.4531 10.1731 24.3409 9.85425 24.3409H5.4076C3.91609 24.3409 2.70285 23.1276 2.70285 21.6361V5.40887C2.70285 3.91736 3.91609 2.70412 5.4076 2.70412H27.0444C28.5359 2.70412 29.7491 3.91736 29.7491 5.40887V21.6361H29.7504ZM18.2563 22.3125C18.2563 23.4319 17.3473 24.3409 16.2279 24.3409C15.1085 24.3409 14.1995 23.4319 14.1995 22.3125C14.1995 21.193 15.1085 20.2841 16.2279 20.2841C17.3473 20.2841 18.2563 21.193 18.2563 22.3125ZM21.4529 9.39976C22.1153 11.9663 20.8729 14.6292 18.4972 15.7284C18.1739 15.8786 17.5787 16.5936 17.5787 17.3093V17.5799C17.5787 18.3279 16.974 18.932 16.2266 18.932C15.4793 18.932 14.8746 18.3273 14.8746 17.5799V17.3093C14.8746 15.4374 16.155 13.8337 17.36 13.2753C18.3501 12.817 19.2331 11.6202 18.835 10.0774C18.6049 9.19058 17.8557 8.44134 16.9702 8.21251C16.1005 7.98368 15.2517 8.15419 14.5741 8.67904C13.906 9.19692 13.5231 9.97722 13.5231 10.8196C13.5231 11.5676 12.9184 12.1717 12.1711 12.1717C11.4237 12.1717 10.819 11.567 10.819 10.8196C10.819 9.13353 11.5828 7.57419 12.919 6.54097C14.2521 5.50522 15.9781 5.15912 17.6478 5.5946C19.4841 6.0681 20.9801 7.56215 21.4529 9.40103V9.39976Z" fill="#FFC700"/>
</g>
<defs>
<clipPath id="clip0_3969_150">
<rect width="32.4558" height="32" fill="white"/>
</clipPath>
</defs>
</svg>
