<svg width="42" height="42" viewBox="0 0 42 42" fill="none" xmlns="http://www.w3.org/2000/svg">
<g id="Trophy">
<path id="Vector" d="M38.0625 10.5H34.125V9.1875C34.125 8.49131 33.8484 7.82363 33.3562 7.33134C32.8639 6.83906 32.1962 6.5625 31.5 6.5625H10.5C9.80381 6.5625 9.13613 6.83906 8.64384 7.33134C8.15156 7.82363 7.875 8.49131 7.875 9.1875V10.5H3.9375C3.24131 10.5 2.57363 10.7766 2.08134 11.2688C1.58906 11.7611 1.3125 12.4288 1.3125 13.125V15.75C1.3125 17.4905 2.0039 19.1597 3.23461 20.3904C3.844 20.9998 4.56744 21.4832 5.36364 21.813C6.15984 22.1428 7.0132 22.3125 7.875 22.3125H8.47383C9.24697 24.7626 10.7211 26.9325 12.714 28.554C14.707 30.1754 17.1313 31.1774 19.6875 31.436V35.4375H15.75C15.4019 35.4375 15.0681 35.5758 14.8219 35.8219C14.5758 36.0681 14.4375 36.4019 14.4375 36.75C14.4375 37.0981 14.5758 37.4319 14.8219 37.6781C15.0681 37.9242 15.4019 38.0625 15.75 38.0625H26.25C26.5981 38.0625 26.9319 37.9242 27.1781 37.6781C27.4242 37.4319 27.5625 37.0981 27.5625 36.75C27.5625 36.4019 27.4242 36.0681 27.1781 35.8219C26.9319 35.5758 26.5981 35.4375 26.25 35.4375H22.3125V31.4311C27.5527 30.9012 31.9003 27.2245 33.4819 22.3125H34.125C35.8655 22.3125 37.5347 21.6211 38.7654 20.3904C39.9961 19.1597 40.6875 17.4905 40.6875 15.75V13.125C40.6875 12.4288 40.4109 11.7611 39.9187 11.2688C39.4264 10.7766 38.7587 10.5 38.0625 10.5ZM7.875 19.6875C6.83071 19.6875 5.82919 19.2727 5.09077 18.5342C4.35234 17.7958 3.9375 16.7943 3.9375 15.75V13.125H7.875V18.375C7.875 18.8125 7.89633 19.25 7.93898 19.6875H7.875ZM31.5 18.2273C31.5 24.0548 26.8259 28.8323 21.0804 28.875H21C18.2152 28.875 15.5445 27.7688 13.5754 25.7996C11.6062 23.8305 10.5 21.1598 10.5 18.375V9.1875H31.5V18.2273ZM38.0625 15.75C38.0625 16.7943 37.6477 17.7958 36.9092 18.5342C36.1708 19.2727 35.1693 19.6875 34.125 19.6875H34.043C34.0968 19.2026 34.1242 18.7152 34.125 18.2273V13.125H38.0625V15.75Z" fill="#EF8E2E"/>
</g>
</svg>
