<svg width="32" height="32" viewBox="0 0 32 32" fill="none" xmlns="http://www.w3.org/2000/svg">
<g id="ThumbsUp">
<path id="Vector" d="M29.25 12.015C28.9684 11.6959 28.6222 11.4404 28.2342 11.2654C27.8463 11.0904 27.4256 10.9999 27 11H20V9C20 7.67392 19.4732 6.40215 18.5355 5.46447C17.5979 4.52678 16.3261 4 15 4C14.8142 3.99987 14.6321 4.05149 14.474 4.14908C14.3159 4.24667 14.1881 4.38636 14.105 4.5525L9.3825 14H4C3.46957 14 2.96086 14.2107 2.58579 14.5858C2.21071 14.9609 2 15.4696 2 16V27C2 27.5304 2.21071 28.0391 2.58579 28.4142C2.96086 28.7893 3.46957 29 4 29H25.5C26.2309 29.0003 26.9367 28.7337 27.485 28.2503C28.0332 27.767 28.3861 27.1001 28.4775 26.375L29.9775 14.375C30.0307 13.9525 29.9933 13.5236 29.8679 13.1167C29.7424 12.7098 29.5318 12.3342 29.25 12.015ZM4 16H9V27H4V16ZM27.9925 14.125L26.4925 26.125C26.462 26.3667 26.3444 26.589 26.1617 26.7501C25.9789 26.9112 25.7436 27.0001 25.5 27H11V15.2362L15.5887 6.0575C16.2689 6.19362 16.8808 6.5612 17.3204 7.09768C17.76 7.63416 18.0002 8.3064 18 9V12C18 12.2652 18.1054 12.5196 18.2929 12.7071C18.4804 12.8946 18.7348 13 19 13H27C27.1419 13 27.2822 13.0301 27.4115 13.0885C27.5409 13.1468 27.6563 13.232 27.7502 13.3384C27.8441 13.4448 27.9143 13.57 27.956 13.7056C27.9978 13.8413 28.0102 13.9842 27.9925 14.125Z" fill="#436900"/>
</g>
</svg>
